<?xml version="1.0" encoding="UTF-8" standalone="no"?>
<!DOCTYPE svg PUBLIC "-//W3C//DTD SVG 1.1//EN"
 "http://www.w3.org/Graphics/SVG/1.1/DTD/svg11.dtd">
<!-- Generated by graphviz version 10.0.1 (0)
 -->
<!-- Pages: 1 -->
<svg width="222pt" height="188pt"
 viewBox="0.00 0.00 222.35 188.00" xmlns="http://www.w3.org/2000/svg" xmlns:xlink="http://www.w3.org/1999/xlink">
<g id="graph0" class="graph" transform="scale(1 1) rotate(0) translate(4 184)">
<polygon fill="white" stroke="none" points="-4,4 -4,-184 218.35,-184 218.35,4 -4,4"/>
<!-- Prolog -->
<g id="node1" class="node">
<title>Prolog</title>
<ellipse fill="#e5e5e5" stroke="blue" cx="102.82" cy="-162" rx="35.49" ry="18"/>
<text text-anchor="middle" x="102.82" y="-156.95" font-family="Times,serif" font-size="14.00">Prolog</text>
</g>
<!-- Erlang -->
<g id="node2" class="node">
<title>Erlang</title>
<ellipse fill="#262626" stroke="black" cx="48.82" cy="-90" rx="9" ry="9"/>
</g>
<!-- Prolog&#45;&gt;Erlang -->
<g id="edge1" class="edge">
<title>Prolog&#45;&gt;Erlang</title>
<path fill="none" stroke="black" d="M90.3,-144.76C81.52,-133.39 69.84,-118.25 61.12,-106.94"/>
<polygon fill="black" stroke="black" points="63.9,-104.82 55.02,-99.04 58.36,-109.09 63.9,-104.82"/>
<text text-anchor="middle" x="36.34" y="-124.69" font-family="Times,serif" font-size="14.00"> &#160;influenced &#160;</text>
</g>
<!-- Clojure -->
<g id="node3" class="node">
<title>Clojure</title>
<ellipse fill="#e5e5e5" stroke="blue" cx="102.82" cy="-18" rx="38.56" ry="18"/>
<text text-anchor="middle" x="102.82" y="-12.95" font-family="Times,serif" font-size="14.00">Clojure</text>
</g>
<!-- Prolog&#45;&gt;Clojure -->
<g id="edge3" class="edge">
<title>Prolog&#45;&gt;Clojure</title>
<path fill="none" stroke="black" d="M117.31,-145.17C125.35,-135.27 134.57,-121.82 138.82,-108 143.52,-92.71 143.52,-87.29 138.82,-72 135.77,-62.07 130.15,-52.32 124.24,-43.95"/>
<polygon fill="black" stroke="black" points="127.06,-41.89 118.23,-36.04 121.49,-46.12 127.06,-41.89"/>
<text text-anchor="middle" x="178.35" y="-93.2" font-family="Times,serif" font-size="14.00"> &#160;influenced &#160;</text>
</g>
<!-- Erlang&#45;&gt;Clojure -->
<g id="edge2" class="edge">
<title>Erlang&#45;&gt;Clojure</title>
<path fill="none" stroke="black" d="M54,-82.29C60.73,-73.56 72.88,-57.81 83.37,-44.21"/>
<polygon fill="black" stroke="black" points="86.02,-46.51 89.36,-36.45 80.48,-42.23 86.02,-46.51"/>
<text text-anchor="middle" x="36" y="-62.15" font-family="Times,serif" font-size="14.00"> &#160;influenced &#160;</text>
</g>
<!-- a -->
<!-- Erlang&#45;&gt;a -->
</g>
</svg>
