<?xml version="1.0" encoding="UTF-8" standalone="no"?>
<!DOCTYPE svg PUBLIC "-//W3C//DTD SVG 1.1//EN"
 "http://www.w3.org/Graphics/SVG/1.1/DTD/svg11.dtd">
<!-- Generated by graphviz version 10.0.1 (0)
 -->
<!-- Pages: 1 -->
<svg width="301pt" height="98pt"
 viewBox="0.00 0.00 300.90 98.00" xmlns="http://www.w3.org/2000/svg" xmlns:xlink="http://www.w3.org/1999/xlink">
<g id="graph0" class="graph" transform="scale(1 1) rotate(0) translate(4 94)">
<polygon fill="white" stroke="none" points="-4,4 -4,-94 296.9,-94 296.9,4 -4,4"/>
<!-- Prolog -->
<g id="node1" class="node">
<title>Prolog</title>
<ellipse fill="#e5e5e5" stroke="blue" cx="35.49" cy="-45" rx="35.49" ry="18"/>
<text text-anchor="middle" x="35.49" y="-39.95" font-family="Times,serif" font-size="14.00">Prolog</text>
</g>
<!-- Datalog -->
<g id="node2" class="node">
<title>Datalog</title>
<ellipse fill="#e5e5e5" stroke="blue" cx="252.81" cy="-72" rx="40.09" ry="18"/>
<text text-anchor="middle" x="252.81" y="-66.95" font-family="Times,serif" font-size="14.00">Datalog</text>
</g>
<!-- Prolog&#45;&gt;Datalog -->
<g id="edge1" class="edge">
<title>Prolog&#45;&gt;Datalog</title>
<path fill="none" stroke="black" d="M70.13,-49.22C105.62,-53.67 161.92,-60.73 202.45,-65.81"/>
<polygon fill="black" stroke="black" points="201.83,-69.26 212.19,-67.03 202.7,-62.31 201.83,-69.26"/>
<text text-anchor="middle" x="141.85" y="-67.2" font-family="Times,serif" font-size="14.00"> &#160;&#160;influenced &#160;&#160;</text>
</g>
<!-- C -->
<g id="node3" class="node">
<title>C</title>
<ellipse fill="#e5e5e5" stroke="blue" cx="252.81" cy="-18" rx="27" ry="18"/>
<text text-anchor="middle" x="252.81" y="-12.95" font-family="Times,serif" font-size="14.00">C</text>
</g>
<!-- Prolog&#45;&gt;C -->
<g id="edge2" class="edge">
<title>Prolog&#45;&gt;C</title>
<path fill="none" stroke="black" d="M67.7,-36.78C74.66,-35.17 82.04,-33.63 88.97,-32.5 131.51,-25.58 180.88,-21.77 214.01,-19.81"/>
<polygon fill="black" stroke="black" points="214.14,-23.31 223.93,-19.26 213.75,-16.32 214.14,-23.31"/>
<text text-anchor="middle" x="141.85" y="-36.2" font-family="Times,serif" font-size="14.00"> &#160;&#160;not(influenced) &#160;&#160;</text>
</g>
</g>
</svg>
