<?xml version="1.0" encoding="UTF-8" standalone="no"?>
<!DOCTYPE svg PUBLIC "-//W3C//DTD SVG 1.1//EN"
 "http://www.w3.org/Graphics/SVG/1.1/DTD/svg11.dtd">
<!-- Generated by graphviz version 10.0.1 (0)
 -->
<!-- Pages: 1 -->
<svg width="437pt" height="288pt"
 viewBox="0.00 0.00 436.97 288.00" xmlns="http://www.w3.org/2000/svg" xmlns:xlink="http://www.w3.org/1999/xlink">
<g id="graph0" class="graph" transform="scale(1 1) rotate(0) translate(4 284)">
<polygon fill="white" stroke="none" points="-4,4 -4,-284 432.97,-284 432.97,4 -4,4"/>
<!-- Prolog -->
<g id="node1" class="node">
<title>Prolog</title>
<ellipse fill="#e5e5e5" stroke="blue" cx="92.25" cy="-262" rx="35.49" ry="18"/>
<text text-anchor="middle" x="92.25" y="-256.95" font-family="Times,serif" font-size="14.00">Prolog</text>
</g>
<!-- Datalog -->
<g id="node2" class="node">
<title>Datalog</title>
<ellipse fill="#e5e5e5" stroke="blue" cx="240.25" cy="-262" rx="40.09" ry="18"/>
<text text-anchor="middle" x="240.25" y="-256.95" font-family="Times,serif" font-size="14.00">Datalog</text>
</g>
<!-- Prolog&#45;&gt;Datalog -->
<g id="edge1" class="edge">
<title>Prolog&#45;&gt;Datalog</title>
<path fill="none" stroke="black" d="M128.09,-262C148.21,-262 168.32,-262 188.44,-262"/>
<polygon fill="black" stroke="black" points="188.43,-265.5 198.43,-262 188.43,-258.5 188.43,-265.5"/>
<text text-anchor="middle" x="163.92" y="-248.7" font-family="Times,serif" font-size="14.00"> &#160;influenced &#160;</text>
</g>
<!-- 1972 -->
<g id="node5" class="node">
<title>1972</title>
<polygon fill="#e5e5e5" stroke="green" points="65.25,-122.5 65.25,-171.5 119.25,-171.5 119.25,-122.5 65.25,-122.5"/>
<text text-anchor="middle" x="92.25" y="-154.2" font-family="Times,serif" font-size="14.00">Year</text>
<polyline fill="none" stroke="green" points="65.25,-147 119.25,-147"/>
<text text-anchor="middle" x="92.25" y="-129.7" font-family="Times,serif" font-size="14.00">1972</text>
</g>
<!-- Prolog&#45;&gt;1972 -->
<g id="edge4" class="edge">
<title>Prolog&#45;&gt;1972</title>
<path fill="none" stroke="black" d="M92.25,-243.84C92.25,-227.73 92.25,-203.17 92.25,-182.94"/>
<polygon fill="black" stroke="black" points="95.75,-183.14 92.25,-173.14 88.75,-183.14 95.75,-183.14"/>
<text text-anchor="middle" x="46.12" y="-211.07" font-family="Times,serif" font-size="14.00"> &#160;first_appeared &#160;</text>
</g>
<!-- SQL -->
<g id="node3" class="node">
<title>SQL</title>
<ellipse fill="#e5e5e5" stroke="blue" cx="382.25" cy="-262" rx="28.32" ry="18"/>
<text text-anchor="middle" x="382.25" y="-256.95" font-family="Times,serif" font-size="14.00">SQL</text>
</g>
<!-- Datalog&#45;&gt;SQL -->
<g id="edge2" class="edge">
<title>Datalog&#45;&gt;SQL</title>
<path fill="none" stroke="black" d="M280.74,-262C301.26,-262 321.78,-262 342.3,-262"/>
<polygon fill="black" stroke="black" points="342.19,-265.5 352.19,-262 342.19,-258.5 342.19,-265.5"/>
<text text-anchor="middle" x="317.29" y="-248.7" font-family="Times,serif" font-size="14.00"> &#160;influenced &#160;</text>
</g>
<!-- 1977 -->
<g id="node6" class="node">
<title>1977</title>
<polygon fill="#e5e5e5" stroke="green" points="211.25,-122.5 211.25,-171.5 265.25,-171.5 265.25,-122.5 211.25,-122.5"/>
<text text-anchor="middle" x="238.25" y="-154.2" font-family="Times,serif" font-size="14.00">Year</text>
<polyline fill="none" stroke="green" points="211.25,-147 265.25,-147"/>
<text text-anchor="middle" x="238.25" y="-129.7" font-family="Times,serif" font-size="14.00">1977</text>
</g>
<!-- Datalog&#45;&gt;1977 -->
<g id="edge5" class="edge">
<title>Datalog&#45;&gt;1977</title>
<path fill="none" stroke="black" d="M239.95,-243.84C239.66,-227.73 239.23,-203.17 238.87,-182.94"/>
<polygon fill="black" stroke="black" points="242.37,-183.08 238.69,-173.14 235.37,-183.2 242.37,-183.08"/>
<text text-anchor="middle" x="193.18" y="-211.07" font-family="Times,serif" font-size="14.00"> &#160;first_appeared &#160;</text>
</g>
<!-- SPARQL -->
<g id="node4" class="node">
<title>SPARQL</title>
<ellipse fill="#e5e5e5" stroke="blue" cx="383.25" cy="-147" rx="45.72" ry="18"/>
<text text-anchor="middle" x="383.25" y="-141.95" font-family="Times,serif" font-size="14.00">SPARQL</text>
</g>
<!-- SQL&#45;&gt;SPARQL -->
<g id="edge3" class="edge">
<title>SQL&#45;&gt;SPARQL</title>
<path fill="none" stroke="black" d="M382.4,-243.84C382.56,-226 382.81,-197.78 383,-176.57"/>
<polygon fill="black" stroke="black" points="386.49,-176.87 383.08,-166.84 379.49,-176.81 386.49,-176.87"/>
<text text-anchor="middle" x="346.75" y="-207.36" font-family="Times,serif" font-size="14.00"> &#160;influenced &#160;</text>
</g>
<!-- 2008&#45;01&#45;15 -->
<g id="node7" class="node">
<title>2008&#45;01&#45;15</title>
<polygon fill="#e5e5e5" stroke="green" points="343.75,-0.5 343.75,-49.5 422.75,-49.5 422.75,-0.5 343.75,-0.5"/>
<text text-anchor="middle" x="383.25" y="-32.2" font-family="Times,serif" font-size="14.00">Date</text>
<polyline fill="none" stroke="green" points="343.75,-25 422.75,-25"/>
<text text-anchor="middle" x="383.25" y="-7.7" font-family="Times,serif" font-size="14.00">2008&#45;01&#45;15</text>
</g>
<!-- SPARQL&#45;&gt;2008&#45;01&#45;15 -->
<g id="edge6" class="edge">
<title>SPARQL&#45;&gt;2008&#45;01&#45;15</title>
<path fill="none" stroke="black" d="M383.25,-128.55C383.25,-110.92 383.25,-83.19 383.25,-61"/>
<polygon fill="black" stroke="black" points="386.75,-61.19 383.25,-51.19 379.75,-61.19 386.75,-61.19"/>
<text text-anchor="middle" x="337.12" y="-92.37" font-family="Times,serif" font-size="14.00"> &#160;first_appeared &#160;</text>
</g>
</g>
</svg>
